<svg width="242" height="62" viewBox="0 0 242 62" fill="none" xmlns="http://www.w3.org/2000/svg">
<path fill-rule="evenodd" clip-rule="evenodd" d="M205.782 5.94909C204.174 7.19721 203.219 8.78116 202.563 10.1559C202.121 11.0834 201.005 11.4791 200.071 11.0396C199.137 10.6002 198.738 9.49201 199.181 8.56448C199.955 6.941 201.219 4.77401 203.477 3.02077C205.767 1.24374 208.938 -5.8366e-05 213.331 2.0542e-09C214.948 2.15061e-05 216.421 0.788469 217.637 1.77714C218.879 2.78653 220.046 4.16021 221.091 5.69661C222.309 7.48881 223.42 9.59007 224.322 11.7805C225.928 11.9699 227.574 12.3897 229.214 13.0849C233.942 15.0891 238.448 19.3048 241.824 26.4966C242.261 27.4269 241.856 28.5326 240.919 28.9662C239.982 29.3999 238.869 28.9974 238.432 28.0671C235.364 21.5321 231.463 18.0792 227.745 16.5033C227.065 16.2149 226.385 15.9868 225.71 15.8135C225.777 16.0553 225.84 16.2967 225.9 16.5372C226.375 18.4331 226.656 20.3325 226.644 22.0808C226.632 23.8092 226.333 25.5275 225.518 26.9469C224.663 28.4366 223.289 29.4992 221.419 29.8625C219.636 30.2089 217.56 29.8909 215.232 29.0212C212.86 28.1348 211.071 26.9238 209.948 25.4083C208.795 23.8526 208.431 22.0881 208.753 20.365C209.372 17.054 212.388 14.2897 216.016 12.8463C217.314 12.3299 218.738 11.9599 220.24 11.7813C219.566 10.3365 218.801 8.97036 217.989 7.77654C217.071 6.42631 216.137 5.36092 215.266 4.65288C214.37 3.92413 213.72 3.71681 213.331 3.7168C209.703 3.71675 207.36 4.72475 205.782 5.94909ZM221.674 15.3908C220.133 15.4596 218.686 15.788 217.408 16.2966C214.433 17.4799 212.729 19.4606 212.433 21.0431C212.298 21.7667 212.429 22.4861 212.962 23.2051C213.525 23.9642 214.613 24.8188 216.551 25.5425C218.532 26.283 219.86 26.3782 220.701 26.2148C221.455 26.0683 221.927 25.6981 222.266 25.1064C222.646 24.4442 222.891 23.4321 222.901 22.0554C222.91 20.6987 222.69 19.1182 222.268 17.4336C222.099 16.7579 221.9 16.0741 221.674 15.3908Z" fill="#ECC1D7"/>
<path d="M211 8L193.603 41.4237V56H178.397V41.4237L161 8H178.397L186.137 25.0169L193.877 8H211Z" fill="#ECC1D7"/>
<path d="M95.8353 24.2917C95.2466 23.3194 94.409 22.5787 93.3222 22.0694C92.2355 21.5139 90.9224 21.2361 89.3829 21.2361C86.4851 21.2361 84.2437 22.2083 82.659 24.1528C81.0742 26.0509 80.2818 28.6667 80.2818 32C80.2818 35.8426 81.1647 38.713 82.9306 40.6111C84.6965 42.5093 87.4133 43.4583 91.0809 43.4583C94.5674 43.4583 97.3748 42.0232 99.5029 39.1528H87.4812V28.25H112V43.6667C109.917 47.3241 107.042 50.4722 103.374 53.1111C99.7066 55.7037 95.0655 57 89.4509 57C84.4701 57 80.1233 55.9583 76.4104 53.875C72.7428 51.7454 69.9128 48.7824 67.9205 44.9861C65.9735 41.1898 65 36.8611 65 32C65 27.1389 65.9735 22.8102 67.9205 19.0139C69.9128 15.2176 72.7428 12.2778 76.4104 10.1944C80.078 8.06482 84.3796 7 89.315 7C95.6089 7 100.725 8.55093 104.665 11.6528C108.649 14.7546 111.004 18.9676 111.728 24.2917H95.8353Z" fill="#ECC1D7"/>
<path d="M59 8V56H44V8H59Z" fill="#ECC1D7"/>
<path d="M39 24.4746C39 27.5028 38.304 30.2599 36.9119 32.7458C35.5199 35.1864 33.4542 37.1299 30.715 38.5763C28.0207 40.0226 24.7427 40.7458 20.8808 40.7458H14.9534V56H0V8H20.8808C26.7185 8 31.1865 9.49152 34.285 12.4746C37.4283 15.4576 39 19.4576 39 24.4746ZM19.1969 28.8814C22.2953 28.8814 23.8446 27.4124 23.8446 24.4746C23.8446 21.5367 22.2953 20.0678 19.1969 20.0678H14.9534V28.8814H19.1969Z" fill="#ECC1D7"/>
<path fill-rule="evenodd" clip-rule="evenodd" d="M125.49 19.5113C134.816 10.1875 148.667 8.86933 158.036 17.9693L158.291 18.2238C163.648 23.58 163.629 32.2758 158.248 37.6558C155.162 40.7408 153.471 40.9887 152.029 41.2003C150.955 41.3577 150.019 41.4949 148.749 42.7653C147.478 44.0357 147.341 44.9715 147.183 46.0446C146.972 47.4869 146.724 49.1774 143.638 52.2623C138.257 57.6424 129.559 57.6618 124.202 52.3056L123.948 52.0511C114.846 42.6833 116.164 28.8352 125.49 19.5113ZM126.466 37.4547C126.587 36.3935 127.124 35.3278 127.96 34.4922C128.795 33.6567 129.861 33.1196 130.923 32.9991C131.984 32.8787 132.954 33.1847 133.62 33.85L136.965 37.1945C137.63 37.8598 137.936 38.8297 137.816 39.891C137.695 40.9522 137.158 42.0179 136.323 42.8535C135.487 43.6891 134.421 44.2262 133.359 44.3466C132.298 44.467 131.328 44.161 130.662 43.4957L127.317 40.1512C126.652 39.486 126.346 38.516 126.466 37.4547ZM139.071 24.8523C139.192 23.7911 139.729 22.7254 140.565 21.8898C141.4 21.0542 142.466 20.5171 143.528 20.3967C144.589 20.2763 145.559 20.5823 146.225 21.2476L149.57 24.5921C149.899 24.9215 150.144 25.3292 150.29 25.7918C150.436 26.2545 150.481 26.7631 150.421 27.2886C150.361 27.814 150.199 28.3461 149.942 28.8544C149.686 29.3627 149.341 29.8373 148.928 30.251C148.514 30.6648 148.039 31.0096 147.531 31.2658C147.022 31.522 146.49 31.6845 145.964 31.7442C145.439 31.8038 144.93 31.7594 144.467 31.6134C144.005 31.4674 143.597 31.2227 143.267 30.8933L139.922 27.5488C139.257 26.8835 138.951 25.9136 139.071 24.8523Z" fill="#ECC1D7"/>
</svg>
